<svg width="211" height="43" viewBox="0 0 211 43" fill="none" xmlns="http://www.w3.org/2000/svg">
<path d="M23.38 16.22L26.88 12.52C27.7467 11.5867 28.3467 10.8267 28.68 10.24C29.0133 9.65333 29.18 9.05333 29.18 8.44C29.18 7.78667 28.9733 7.27333 28.56 6.9C28.1467 6.52667 27.58 6.34 26.86 6.34C25.7933 6.34 24.7933 6.65333 23.86 7.28V5.2C24.34 4.89333 24.88 4.66 25.48 4.5C26.08 4.32667 26.7 4.24 27.34 4.24C28.6467 4.24 29.7 4.6 30.5 5.32C31.3 6.04 31.7 6.98 31.7 8.14C31.7 9.03333 31.4867 9.89333 31.06 10.72C30.6333 11.5467 29.94 12.46 28.98 13.46L26.62 15.92H31.98V18H23.38V16.22ZM38.0527 18.26C36.4927 18.26 35.2793 17.6533 34.4127 16.44C33.546 15.2133 33.1127 13.4867 33.1127 11.26C33.1127 9.04667 33.546 7.32667 34.4127 6.1C35.2793 4.86 36.4927 4.24 38.0527 4.24C39.626 4.24 40.846 4.85333 41.7127 6.08C42.5793 7.29333 43.0127 9.01333 43.0127 11.24C43.0127 13.4667 42.5793 15.1933 41.7127 16.42C40.846 17.6467 39.626 18.26 38.0527 18.26ZM38.0527 16.18C38.8527 16.18 39.4593 15.7667 39.8727 14.94C40.286 14.1 40.4927 12.8667 40.4927 11.24C40.4927 7.96 39.6793 6.32 38.0527 6.32C37.266 6.32 36.666 6.74 36.2527 7.58C35.8393 8.40667 35.6327 9.63333 35.6327 11.26C35.6327 14.54 36.4393 16.18 38.0527 16.18ZM43.8097 16.22L47.3097 12.52C48.1764 11.5867 48.7764 10.8267 49.1097 10.24C49.443 9.65333 49.6097 9.05333 49.6097 8.44C49.6097 7.78667 49.403 7.27333 48.9897 6.9C48.5764 6.52667 48.0097 6.34 47.2897 6.34C46.223 6.34 45.223 6.65333 44.2897 7.28V5.2C44.7697 4.89333 45.3097 4.66 45.9097 4.5C46.5097 4.32667 47.1297 4.24 47.7697 4.24C49.0764 4.24 50.1297 4.6 50.9297 5.32C51.7297 6.04 52.1297 6.98 52.1297 8.14C52.1297 9.03333 51.9164 9.89333 51.4897 10.72C51.063 11.5467 50.3697 12.46 49.4097 13.46L47.0497 15.92H52.4097V18H43.8097V16.22ZM57.3177 18.26C55.931 18.26 54.691 17.9667 53.5977 17.38V15.2C54.7177 15.88 55.8443 16.22 56.9777 16.22C57.8443 16.22 58.511 16.0333 58.9777 15.66C59.4577 15.2867 59.6977 14.7533 59.6977 14.06C59.6977 12.6867 58.811 12 57.0377 12H55.7177V10.02H57.0177C57.7777 10.02 58.3577 9.85333 58.7577 9.52C59.1577 9.17333 59.3577 8.68667 59.3577 8.06C59.3577 7.47333 59.1577 7.03333 58.7577 6.74C58.3577 6.43333 57.7843 6.28 57.0377 6.28C56.011 6.28 55.031 6.56 54.0977 7.12V5.12C55.0843 4.53333 56.231 4.24 57.5377 4.24C58.8577 4.24 59.9043 4.56667 60.6777 5.22C61.4643 5.86 61.8577 6.72 61.8577 7.8C61.8577 8.46667 61.6777 9.07333 61.3177 9.62C60.971 10.1667 60.4843 10.5867 59.8577 10.88C60.6043 11.1333 61.1843 11.5533 61.5977 12.14C62.0243 12.7267 62.2377 13.42 62.2377 14.22C62.2377 15.4467 61.791 16.4267 60.8977 17.16C60.0043 17.8933 58.811 18.26 57.3177 18.26ZM67.0445 18L67.9245 4.5H70.8845L74.4245 13.48L77.9445 4.5H80.8845L81.7645 18H79.3445L78.7445 8.06L75.4445 16.56H73.3445L70.0245 8.04L69.4045 18H67.0445ZM83.788 7.62H86.268V18H83.788V7.62ZM85.028 6.06C84.6013 6.06 84.2413 5.92 83.948 5.64C83.668 5.36 83.528 5.01333 83.528 4.6C83.528 4.18667 83.668 3.84 83.948 3.56C84.2413 3.28 84.6013 3.14 85.028 3.14C85.4546 3.14 85.808 3.28 86.088 3.56C86.3813 3.84 86.528 4.18667 86.528 4.6C86.528 5.01333 86.3813 5.36 86.088 5.64C85.808 5.92 85.4546 6.06 85.028 6.06ZM91.4145 18.26C90.4012 18.26 89.5879 17.9867 88.9745 17.44C88.3612 16.8933 88.0545 16.16 88.0545 15.24C88.0545 14.0667 88.5212 13.16 89.4545 12.52C90.3879 11.8667 91.7145 11.54 93.4345 11.54C93.5812 11.54 93.7279 11.54 93.8745 11.54C94.0212 11.54 94.1612 11.5467 94.2945 11.56C94.2545 10.8133 94.0412 10.26 93.6545 9.9C93.2679 9.54 92.6879 9.36 91.9145 9.36C90.9279 9.36 89.9412 9.64 88.9545 10.2V8.2C90.0345 7.64 91.1479 7.36 92.2945 7.36C93.6945 7.36 94.7745 7.74667 95.5345 8.52C96.2945 9.28 96.6745 10.3733 96.6745 11.8V18H94.6145L94.4745 16.8C94.1545 17.2533 93.7212 17.6133 93.1745 17.88C92.6412 18.1333 92.0545 18.26 91.4145 18.26ZM92.0945 16.5C92.7079 16.5 93.2279 16.28 93.6545 15.84C94.0945 15.4 94.3145 14.8667 94.3145 14.24V13.22C94.1812 13.22 94.0412 13.22 93.8945 13.22C93.7612 13.2067 93.6212 13.2 93.4745 13.2C92.4879 13.2 91.7279 13.3533 91.1945 13.66C90.6745 13.9533 90.4145 14.3867 90.4145 14.96C90.4145 15.4267 90.5679 15.8 90.8745 16.08C91.1812 16.36 91.5879 16.5 92.0945 16.5ZM98.827 7.62H101.007L101.127 8.76C101.46 8.30667 101.867 7.96 102.347 7.72C102.827 7.48 103.36 7.36 103.947 7.36C104.56 7.36 105.107 7.50667 105.587 7.8C106.08 8.09333 106.467 8.52 106.747 9.08C107.094 8.53333 107.54 8.11333 108.087 7.82C108.634 7.51333 109.247 7.36 109.927 7.36C110.927 7.36 111.727 7.70667 112.327 8.4C112.927 9.08 113.227 9.98667 113.227 11.12V18H110.747V11.52C110.747 10.8533 110.6 10.34 110.307 9.98C110.014 9.62 109.607 9.44 109.087 9.44C108.54 9.44 108.1 9.62667 107.767 10C107.434 10.3733 107.267 10.8733 107.267 11.5V18H104.787V11.52C104.787 10.8533 104.64 10.34 104.347 9.98C104.067 9.62 103.654 9.44 103.107 9.44C102.574 9.44 102.14 9.63333 101.807 10.02C101.474 10.3933 101.307 10.8867 101.307 11.5V18H98.827V7.62ZM115.39 7.62H117.87V18H115.39V7.62ZM116.63 6.06C116.203 6.06 115.843 5.92 115.55 5.64C115.27 5.36 115.13 5.01333 115.13 4.6C115.13 4.18667 115.27 3.84 115.55 3.56C115.843 3.28 116.203 3.14 116.63 3.14C117.056 3.14 117.41 3.28 117.69 3.56C117.983 3.84 118.13 4.18667 118.13 4.6C118.13 5.01333 117.983 5.36 117.69 5.64C117.41 5.92 117.056 6.06 116.63 6.06ZM129.275 16.06C130.381 16.06 131.255 15.6267 131.895 14.76C132.535 13.8933 132.855 12.7267 132.855 11.26C132.855 9.79333 132.528 8.62667 131.875 7.76C131.221 6.88 130.348 6.44 129.255 6.44C128.161 6.44 127.295 6.87333 126.655 7.74C126.015 8.59333 125.695 9.76 125.695 11.24C125.695 12.7067 126.015 13.88 126.655 14.76C127.308 15.6267 128.181 16.06 129.275 16.06ZM129.255 18.26C128.001 18.26 126.908 17.96 125.975 17.36C125.041 16.76 124.321 15.9333 123.815 14.88C123.321 13.8267 123.075 12.62 123.075 11.26C123.075 9.84667 123.341 8.61333 123.875 7.56C124.421 6.49333 125.161 5.67333 126.095 5.1C127.028 4.52667 128.095 4.24 129.295 4.24C130.548 4.24 131.641 4.54 132.575 5.14C133.508 5.74 134.221 6.56667 134.715 7.62C135.221 8.67333 135.475 9.88 135.475 11.24C135.475 12.6533 135.201 13.8933 134.655 14.96C134.121 16.0133 133.388 16.8267 132.455 17.4C131.521 17.9733 130.455 18.26 129.255 18.26ZM137.284 7.62H139.464L139.604 9.06C139.911 8.52667 140.331 8.11333 140.864 7.82C141.411 7.51333 142.024 7.36 142.704 7.36C143.571 7.36 144.317 7.58667 144.944 8.04C145.584 8.49333 146.071 9.12667 146.404 9.94C146.737 10.7533 146.904 11.6933 146.904 12.76C146.904 13.8933 146.717 14.8733 146.344 15.7C145.984 16.5267 145.477 17.16 144.824 17.6C144.184 18.04 143.444 18.26 142.604 18.26C142.017 18.26 141.477 18.14 140.984 17.9C140.504 17.66 140.097 17.3133 139.764 16.86V21.8H137.284V7.62ZM142.044 16.22C142.777 16.22 143.351 15.92 143.764 15.32C144.191 14.72 144.404 13.8867 144.404 12.82C144.404 11.7533 144.191 10.92 143.764 10.32C143.351 9.70667 142.777 9.4 142.044 9.4C141.311 9.4 140.737 9.7 140.324 10.3C139.911 10.9 139.704 11.7267 139.704 12.78C139.704 13.8333 139.911 14.6733 140.324 15.3C140.737 15.9133 141.311 16.22 142.044 16.22ZM153.351 18.26C151.725 18.26 150.451 17.7733 149.531 16.8C148.611 15.8267 148.151 14.4867 148.151 12.78C148.151 11.6867 148.351 10.7333 148.751 9.92C149.165 9.09333 149.731 8.46 150.451 8.02C151.171 7.58 151.991 7.36 152.911 7.36C154.258 7.36 155.318 7.81333 156.091 8.72C156.865 9.62667 157.251 10.88 157.251 12.48V13.6H150.531C150.665 14.48 150.998 15.1467 151.531 15.6C152.065 16.0533 152.778 16.28 153.671 16.28C154.658 16.28 155.638 16.0267 156.611 15.52V17.5C155.678 18.0067 154.591 18.26 153.351 18.26ZM152.811 9.26C152.158 9.26 151.631 9.48667 151.231 9.94C150.845 10.38 150.605 11.0267 150.511 11.88H154.951C154.925 11.0533 154.725 10.4133 154.351 9.96C153.978 9.49333 153.465 9.26 152.811 9.26ZM158.964 7.62H161.144L161.284 8.88C161.63 8.38667 162.064 8.01333 162.584 7.76C163.117 7.49333 163.704 7.36 164.344 7.36C165.437 7.36 166.31 7.73333 166.964 8.48C167.617 9.22667 167.944 10.22 167.944 11.46V18H165.464V11.84C165.464 11.0667 165.297 10.4733 164.964 10.06C164.63 9.64667 164.15 9.44 163.524 9.44C162.897 9.44 162.39 9.66 162.004 10.1C161.63 10.5267 161.444 11.1067 161.444 11.84V18H158.964V7.62Z" fill="white"/>
<path d="M24.056 39L24.76 28.2H26.472L29.624 36.056H29.752L32.888 28.2H34.584L35.288 39H33.928L33.432 30.296H33.304L30.312 37.848H29.032L26.024 30.28H25.896L25.4 39H24.056ZM39.94 39.208C39.14 39.208 38.5 38.9893 38.02 38.552C37.5507 38.1147 37.316 37.5387 37.316 36.824C37.316 35.9067 37.6893 35.2027 38.436 34.712C39.1933 34.2107 40.2813 33.96 41.7 33.96C41.924 33.96 42.1533 33.9653 42.388 33.976C42.3773 33.208 42.2067 32.6427 41.876 32.28C41.5453 31.9173 41.0387 31.736 40.356 31.736C39.5347 31.736 38.7453 31.9707 37.988 32.44V31.256C38.7987 30.7867 39.6467 30.552 40.532 30.552C41.5667 30.552 42.3613 30.8507 42.916 31.448C43.4813 32.0347 43.764 32.8773 43.764 33.976V39H42.564L42.484 37.896H42.372C42.1373 38.3013 41.8013 38.6213 41.364 38.856C40.9267 39.0907 40.452 39.208 39.94 39.208ZM40.26 38.136C40.6547 38.136 41.0173 38.0347 41.348 37.832C41.6787 37.6293 41.9347 37.368 42.116 37.048C42.2973 36.728 42.388 36.3813 42.388 36.008V35.032C42.228 35.0107 41.9827 35 41.652 35C40.6813 35 39.94 35.144 39.428 35.432C38.9267 35.72 38.676 36.136 38.676 36.68C38.676 37.1173 38.82 37.4693 39.108 37.736C39.4067 38.0027 39.7907 38.136 40.26 38.136ZM46.3596 30.76H47.5916L47.6876 32.008H47.8156C48.0076 31.5707 48.2903 31.2293 48.6636 30.984C49.037 30.728 49.4636 30.6 49.9436 30.6C50.2423 30.6 50.493 30.632 50.6956 30.696V31.992C50.4716 31.9173 50.205 31.88 49.8956 31.88C49.2556 31.88 48.7383 32.104 48.3436 32.552C47.9596 33 47.7676 33.6027 47.7676 34.36V39H46.3596V30.76ZM55.8975 37.912L59.0175 34.616C59.6895 33.9013 60.1642 33.2933 60.4415 32.792C60.7188 32.28 60.8575 31.7467 60.8575 31.192C60.8575 30.584 60.6655 30.104 60.2815 29.752C59.9082 29.3893 59.4068 29.208 58.7775 29.208C57.8708 29.208 57.0388 29.48 56.2815 30.024V28.776C56.6335 28.52 57.0442 28.328 57.5135 28.2C57.9828 28.0613 58.4735 27.992 58.9855 27.992C59.9668 27.992 60.7615 28.2747 61.3695 28.84C61.9882 29.4053 62.2975 30.1413 62.2975 31.048C62.2975 31.72 62.1268 32.3813 61.7855 33.032C61.4548 33.6827 60.8948 34.424 60.1055 35.256L57.8175 37.672V37.784H62.5535V39H55.8975V37.912ZM68.3706 39.208C67.1653 39.208 66.2266 38.7227 65.5546 37.752C64.8933 36.7707 64.5626 35.3893 64.5626 33.608C64.5626 31.8267 64.8933 30.4453 65.5546 29.464C66.216 28.4827 67.1493 27.992 68.3546 27.992C69.56 27.992 70.4933 28.4827 71.1546 29.464C71.8266 30.4347 72.1626 31.8107 72.1626 33.592C72.1626 35.3733 71.832 36.7547 71.1706 37.736C70.5093 38.7173 69.576 39.208 68.3706 39.208ZM68.3706 37.992C69.1173 37.992 69.6933 37.608 70.0986 36.84C70.5146 36.072 70.7226 34.9893 70.7226 33.592C70.7226 32.184 70.52 31.1013 70.1146 30.344C69.7093 29.5867 69.1226 29.208 68.3546 29.208C67.608 29.208 67.0266 29.592 66.6106 30.36C66.2053 31.128 66.0026 32.2107 66.0026 33.608C66.0026 35.016 66.2053 36.0987 66.6106 36.856C67.0266 37.6133 67.6133 37.992 68.3706 37.992ZM77.6661 35.096V33.912H81.9381V35.096H77.6661ZM91.1336 28.2H92.6696L96.5896 39H95.0856L94.1256 36.168H89.6136L88.6536 39H87.2136L91.1336 28.2ZM90.0136 34.968H93.7096L91.9336 29.704H91.8056L90.0136 34.968ZM98.3753 30.76H99.6073L99.7033 32.104H99.8313C100.066 31.6133 100.402 31.2347 100.839 30.968C101.287 30.6907 101.778 30.552 102.311 30.552C102.994 30.552 103.586 30.7333 104.087 31.096C104.599 31.4587 104.989 31.9653 105.255 32.616C105.522 33.256 105.655 33.9973 105.655 34.84C105.655 35.736 105.506 36.5147 105.207 37.176C104.919 37.8373 104.514 38.344 103.991 38.696C103.479 39.0373 102.887 39.208 102.215 39.208C101.725 39.208 101.282 39.0907 100.887 38.856C100.493 38.6213 100.167 38.2853 99.9113 37.848H99.7833V41.96H98.3753V30.76ZM101.959 38.024C102.663 38.024 103.218 37.7413 103.623 37.176C104.029 36.6107 104.231 35.8427 104.231 34.872C104.231 33.9013 104.023 33.1387 103.607 32.584C103.202 32.0187 102.653 31.736 101.959 31.736C101.287 31.736 100.749 32.0187 100.343 32.584C99.9379 33.1493 99.7353 33.9067 99.7353 34.856C99.7353 35.816 99.9379 36.584 100.343 37.16C100.749 37.736 101.287 38.024 101.959 38.024ZM107.735 30.76H108.967L109.063 32.008H109.191C109.383 31.5707 109.665 31.2293 110.039 30.984C110.412 30.728 110.839 30.6 111.319 30.6C111.617 30.6 111.868 30.632 112.071 30.696V31.992C111.847 31.9173 111.58 31.88 111.271 31.88C110.631 31.88 110.113 32.104 109.719 32.552C109.335 33 109.143 33.6027 109.143 34.36V39H107.735V30.76ZM117.273 37.912L120.393 34.616C121.065 33.9013 121.539 33.2933 121.817 32.792C122.094 32.28 122.233 31.7467 122.233 31.192C122.233 30.584 122.041 30.104 121.657 29.752C121.283 29.3893 120.782 29.208 120.153 29.208C119.246 29.208 118.414 29.48 117.657 30.024V28.776C118.009 28.52 118.419 28.328 118.889 28.2C119.358 28.0613 119.849 27.992 120.361 27.992C121.342 27.992 122.137 28.2747 122.745 28.84C123.363 29.4053 123.673 30.1413 123.673 31.048C123.673 31.72 123.502 32.3813 123.161 33.032C122.83 33.6827 122.27 34.424 121.481 35.256L119.193 37.672V37.784H123.929V39H117.273V37.912ZM125.186 41.144C126.156 39.9067 126.647 38.552 126.658 37.08H128.002C128.002 37.8373 127.863 38.5627 127.586 39.256C127.308 39.9493 126.903 40.5787 126.37 41.144H125.186ZM134.023 37.912L137.143 34.616C137.815 33.9013 138.289 33.2933 138.567 32.792C138.844 32.28 138.983 31.7467 138.983 31.192C138.983 30.584 138.791 30.104 138.407 29.752C138.033 29.3893 137.532 29.208 136.903 29.208C135.996 29.208 135.164 29.48 134.407 30.024V28.776C134.759 28.52 135.169 28.328 135.639 28.2C136.108 28.0613 136.599 27.992 137.111 27.992C138.092 27.992 138.887 28.2747 139.495 28.84C140.113 29.4053 140.423 30.1413 140.423 31.048C140.423 31.72 140.252 32.3813 139.911 33.032C139.58 33.6827 139.02 34.424 138.231 35.256L135.943 37.672V37.784H140.679V39H134.023V37.912ZM146.496 39.208C145.29 39.208 144.352 38.7227 143.68 37.752C143.018 36.7707 142.688 35.3893 142.688 33.608C142.688 31.8267 143.018 30.4453 143.68 29.464C144.341 28.4827 145.274 27.992 146.48 27.992C147.685 27.992 148.618 28.4827 149.28 29.464C149.952 30.4347 150.288 31.8107 150.288 33.592C150.288 35.3733 149.957 36.7547 149.296 37.736C148.634 38.7173 147.701 39.208 146.496 39.208ZM146.496 37.992C147.242 37.992 147.818 37.608 148.224 36.84C148.64 36.072 148.848 34.9893 148.848 33.592C148.848 32.184 148.645 31.1013 148.24 30.344C147.834 29.5867 147.248 29.208 146.48 29.208C145.733 29.208 145.152 29.592 144.736 30.36C144.33 31.128 144.128 32.2107 144.128 33.608C144.128 35.016 144.33 36.0987 144.736 36.856C145.152 37.6133 145.738 37.992 146.496 37.992ZM151.929 37.912L155.049 34.616C155.721 33.9013 156.195 33.2933 156.473 32.792C156.75 32.28 156.889 31.7467 156.889 31.192C156.889 30.584 156.697 30.104 156.313 29.752C155.939 29.3893 155.438 29.208 154.809 29.208C153.902 29.208 153.07 29.48 152.313 30.024V28.776C152.665 28.52 153.075 28.328 153.545 28.2C154.014 28.0613 154.505 27.992 155.017 27.992C155.998 27.992 156.793 28.2747 157.401 28.84C158.019 29.4053 158.329 30.1413 158.329 31.048C158.329 31.72 158.158 32.3813 157.817 33.032C157.486 33.6827 156.926 34.424 156.137 35.256L153.849 37.672V37.784H158.585V39H151.929V37.912ZM163.922 39.208C163.357 39.208 162.845 39.1493 162.386 39.032C161.927 38.9253 161.458 38.7387 160.978 38.472V37.112C161.821 37.6987 162.743 37.992 163.746 37.992C164.514 37.992 165.117 37.816 165.554 37.464C165.991 37.1013 166.21 36.6 166.21 35.96C166.21 34.6267 165.394 33.96 163.762 33.96H162.722V32.792H163.762C164.455 32.792 164.989 32.6267 165.362 32.296C165.735 31.9653 165.922 31.5013 165.922 30.904C165.922 30.36 165.735 29.9387 165.362 29.64C164.989 29.3307 164.471 29.176 163.81 29.176C163.031 29.176 162.237 29.4213 161.426 29.912V28.712C162.162 28.232 163.037 27.992 164.05 27.992C165.053 27.992 165.853 28.248 166.45 28.76C167.047 29.272 167.346 29.96 167.346 30.824C167.346 31.368 167.202 31.848 166.914 32.264C166.637 32.68 166.231 33.0053 165.698 33.24V33.368C166.338 33.5707 166.823 33.9013 167.154 34.36C167.485 34.808 167.65 35.3573 167.65 36.008C167.65 36.968 167.309 37.7413 166.626 38.328C165.943 38.9147 165.042 39.208 163.922 39.208ZM169.771 33.064L171.291 31.336L171.259 31.224L169.147 30.648L169.547 29.608L171.467 30.456L171.579 30.392L171.387 28.2H172.587L172.411 30.392L172.507 30.456L174.427 29.608L174.827 30.648L172.731 31.224L172.683 31.336L174.203 33.064L173.275 33.72L172.043 31.816H171.931L170.699 33.72L169.771 33.064Z" fill="white"/>
<rect y="4" width="14" height="36" rx="7" fill="#EDE808"/>
<circle cx="7" cy="10" r="7" fill="#E66A1F"/>
<circle cx="7" cy="36" r="7" fill="#00AFEE"/>
</svg>
